<?xml version="1.0" encoding="UTF-8" standalone="no"?>
<svg
   xmlns:dc="http://purl.org/dc/elements/1.1/"
   xmlns:cc="http://creativecommons.org/ns#"
   xmlns:rdf="http://www.w3.org/1999/02/22-rdf-syntax-ns#"
   xmlns:svg="http://www.w3.org/2000/svg"
   xmlns="http://www.w3.org/2000/svg"
   xmlns:sodipodi="http://sodipodi.sourceforge.net/DTD/sodipodi-0.dtd"
   xmlns:inkscape="http://www.inkscape.org/namespaces/inkscape"
   width="45"
   height="15"
   viewBox="0 0 11.90625 3.96875"
   version="1.1"
   id="svg8"
   inkscape:version="1.0.2 (1.0.2+r75+1)"
   sodipodi:docname="pacman.svg">
  <defs
     id="defs2" />
  <sodipodi:namedview
     id="base"
     pagecolor="#ffffff"
     bordercolor="#666666"
     borderopacity="1.0"
     inkscape:pageopacity="0.0"
     inkscape:pageshadow="2"
     inkscape:zoom="15.839192"
     inkscape:cx="25.113593"
     inkscape:cy="3.446645"
     inkscape:document-units="px"
     inkscape:current-layer="layer1"
     inkscape:document-rotation="0"
     showgrid="false"
     units="px"
     inkscape:window-width="1920"
     inkscape:window-height="960"
     inkscape:window-x="0"
     inkscape:window-y="27"
     inkscape:window-maximized="1" />
  <metadata
     id="metadata5">
    <rdf:RDF>
      <cc:Work
         rdf:about="">
        <dc:format>image/svg+xml</dc:format>
        <dc:type
           rdf:resource="http://purl.org/dc/dcmitype/StillImage" />
        <dc:title></dc:title>
      </cc:Work>
    </rdf:RDF>
  </metadata>
  <g
     inkscape:label="Layer 1"
     inkscape:groupmode="layer"
     id="layer1">
    <path
       id="path851"
       style="opacity:1;fill:#ffff00;fill-opacity:1;stroke:none;stroke-width:0.790686;stroke-linecap:round;stroke-linejoin:bevel;paint-order:fill markers stroke"
       d="M 9.8970705,0.13233318 A 1.8520833,1.8520833 0 0 0 8.0697917,1.9844165 1.8520833,1.8520833 0 0 0 9.9218745,3.8364998 1.8520833,1.8520833 0 0 0 11.231355,3.2938973 L 9.9218745,1.9844165 11.231355,0.67493569 a 1.8520833,1.8520833 0 0 0 -1.3094805,-0.54260251 1.8520833,1.8520833 0 0 0 -0.0248,0 z" />
    <circle
       style="fill:#ffff00;fill-opacity:1;stroke:none;stroke-width:0.790686;stroke-linecap:round;stroke-linejoin:bevel;paint-order:fill markers stroke"
       id="path851-3"
       cx="6.0125527"
       cy="1.984375"
       r="1.8520833" />
    <path
       id="path851-5"
       style="fill:#ffff00;fill-opacity:1;stroke:none;stroke-width:0.790686;stroke-linecap:round;stroke-linejoin:bevel;paint-order:fill markers stroke"
       d="M 2.1280348,0.13233318 A 1.8520833,1.8520833 0 0 1 3.9553136,1.9844164 1.8520833,1.8520833 0 0 1 2.1032308,3.8364997 1.8520833,1.8520833 0 0 1 0.79375,3.2938972 L 2.1032308,1.9844164 0.79375,0.67493569 a 1.8520833,1.8520833 0 0 1 1.3094808,-0.54260251 1.8520833,1.8520833 0 0 1 0.0248,0 z" />
  </g>
</svg>
